<svg width="34" height="34" viewBox="0 0 34 34" fill="none" xmlns="http://www.w3.org/2000/svg">
<path d="M14.1668 21.2502L21.5193 17.0002L14.1668 12.7502V21.2502ZM30.5435 10.1577C30.7277 10.8235 30.8552 11.716 30.9402 12.8493C31.0393 13.9827 31.0818 14.9602 31.0818 15.8102L31.1668 17.0002C31.1668 20.1027 30.9402 22.3835 30.5435 23.8427C30.1893 25.1177 29.3677 25.9393 28.0927 26.2935C27.4268 26.4777 26.2085 26.6052 24.3385 26.6902C22.4968 26.7893 20.811 26.8318 19.2527 26.8318L17.0002 26.9168C11.0643 26.9168 7.36683 26.6902 5.90766 26.2935C4.63266 25.9393 3.811 25.1177 3.45683 23.8427C3.27266 23.1768 3.14516 22.2843 3.06016 21.151C2.961 20.0177 2.9185 19.0402 2.9185 18.1902L2.8335 17.0002C2.8335 13.8977 3.06016 11.6168 3.45683 10.1577C3.811 8.88266 4.63266 8.061 5.90766 7.70683C6.5735 7.52266 7.79183 7.39516 9.66183 7.31016C11.5035 7.211 13.1893 7.1685 14.7477 7.1685L17.0002 7.0835C22.936 7.0835 26.6335 7.31016 28.0927 7.70683C29.3677 8.061 30.1893 8.88266 30.5435 10.1577Z" fill="#FFF3EC"/>
</svg>
