<svg width="34" height="34" viewBox="0 0 34 34" fill="none" xmlns="http://www.w3.org/2000/svg">
<path fill-rule="evenodd" clip-rule="evenodd" d="M17.0002 2.8335C9.17591 2.8335 2.8335 9.17591 2.8335 17.0002C2.8335 19.6777 3.57725 22.1852 4.87066 24.3215L3.607 28.6168C3.53444 28.8634 3.52967 29.1251 3.59318 29.3742C3.65668 29.6233 3.78613 29.8506 3.96791 30.0324C4.14968 30.2142 4.37707 30.3436 4.62617 30.4072C4.87527 30.4707 5.13688 30.4659 5.3835 30.3933L9.67883 29.1297C11.887 30.4655 14.4193 31.1701 17.0002 31.1668C24.8244 31.1668 31.1668 24.8244 31.1668 17.0002C31.1668 9.17591 24.8244 2.8335 17.0002 2.8335ZM13.7957 20.2061C16.6616 23.0706 19.3972 23.4488 20.3633 23.4842C21.8324 23.5381 23.2632 22.4161 23.82 21.1142C23.8897 20.9521 23.9149 20.7743 23.893 20.5993C23.8711 20.4242 23.8028 20.2582 23.6953 20.1182C22.919 19.1266 21.8692 18.414 20.8436 17.7057C20.6295 17.5572 20.3663 17.4976 20.1092 17.5394C19.8521 17.5811 19.6212 17.721 19.4652 17.9295L18.6152 19.2257C18.5702 19.2952 18.5006 19.3449 18.4204 19.3649C18.3402 19.3849 18.2553 19.3736 18.1831 19.3334C17.6065 19.0033 16.7664 18.4423 16.1629 17.8388C15.5594 17.2353 15.0324 16.4335 14.7363 15.8937C14.7005 15.825 14.6904 15.7457 14.7078 15.6701C14.7252 15.5946 14.769 15.5277 14.8312 15.4815L16.1402 14.5097C16.3276 14.3476 16.4485 14.1221 16.4799 13.8763C16.5113 13.6306 16.4509 13.3819 16.3102 13.178C15.6756 12.2487 14.9361 11.0672 13.8637 10.2837C13.725 10.1841 13.5629 10.122 13.3931 10.1033C13.2234 10.0847 13.0517 10.1103 12.8947 10.1775C11.5913 10.7357 10.4637 12.1665 10.5175 13.6384C10.5529 14.6046 10.9312 17.3402 13.7957 20.2061Z" fill="#322222"/>
</svg>
