<svg width="35" height="34" viewBox="0 0 35 34" fill="none" xmlns="http://www.w3.org/2000/svg">
<path d="M17.5002 2.8335C9.68016 2.8335 3.3335 9.18016 3.3335 17.0002C3.3335 24.8202 9.68016 31.1668 17.5002 31.1668C25.3202 31.1668 31.6668 24.8202 31.6668 17.0002C31.6668 9.18016 25.3202 2.8335 17.5002 2.8335ZM24.0735 12.4668C23.861 14.7052 22.9402 20.1452 22.4727 22.6527C22.2743 23.7152 21.8777 24.0693 21.5093 24.1118C20.6877 24.1827 20.0643 23.5735 19.271 23.0493C18.0243 22.2277 17.316 21.7177 16.1118 20.9243C14.7093 20.0035 15.616 19.4935 16.4235 18.6718C16.636 18.4593 20.2627 15.1585 20.3335 14.861C20.3433 14.8159 20.342 14.7692 20.3297 14.7247C20.3173 14.6803 20.2943 14.6395 20.2627 14.606C20.1777 14.5352 20.0643 14.5635 19.9652 14.5777C19.8377 14.606 17.8543 15.9235 13.9868 18.5302C13.4202 18.9127 12.9102 19.111 12.4568 19.0968C11.9468 19.0827 10.9835 18.8135 10.261 18.5727C9.3685 18.2893 8.67433 18.1335 8.731 17.6377C8.75933 17.3827 9.1135 17.1277 9.77933 16.8585C13.916 15.0593 16.6643 13.8693 18.0385 13.3027C21.9768 11.6593 22.7843 11.376 23.3227 11.376C23.436 11.376 23.7052 11.4043 23.8752 11.546C24.0168 11.6593 24.0593 11.8152 24.0735 11.9285C24.0593 12.0135 24.0877 12.2685 24.0735 12.4668Z" fill="#322222"/>
</svg>
