<svg width="34" height="34" viewBox="0 0 34 34" fill="none" xmlns="http://www.w3.org/2000/svg">
<path d="M17.0002 2.8335C9.18016 2.8335 2.8335 9.18016 2.8335 17.0002C2.8335 24.8202 9.18016 31.1668 17.0002 31.1668C24.8202 31.1668 31.1668 24.8202 31.1668 17.0002C31.1668 9.18016 24.8202 2.8335 17.0002 2.8335ZM23.5735 12.4668C23.361 14.7052 22.4402 20.1452 21.9727 22.6527C21.7743 23.7152 21.3777 24.0693 21.0093 24.1118C20.1877 24.1827 19.5643 23.5735 18.771 23.0493C17.5243 22.2277 16.816 21.7177 15.6118 20.9243C14.2093 20.0035 15.116 19.4935 15.9235 18.6718C16.136 18.4593 19.7627 15.1585 19.8335 14.861C19.8433 14.8159 19.842 14.7692 19.8297 14.7247C19.8173 14.6803 19.7943 14.6395 19.7627 14.606C19.6777 14.5352 19.5643 14.5635 19.4652 14.5777C19.3377 14.606 17.3543 15.9235 13.4868 18.5302C12.9202 18.9127 12.4102 19.111 11.9568 19.0968C11.4468 19.0827 10.4835 18.8135 9.761 18.5727C8.8685 18.2893 8.17433 18.1335 8.231 17.6377C8.25933 17.3827 8.6135 17.1277 9.27933 16.8585C13.416 15.0593 16.1643 13.8693 17.5385 13.3027C21.4768 11.6593 22.2843 11.376 22.8227 11.376C22.936 11.376 23.2052 11.4043 23.3752 11.546C23.5168 11.6593 23.5593 11.8152 23.5735 11.9285C23.5593 12.0135 23.5877 12.2685 23.5735 12.4668Z" fill="#FFF3EC"/>
</svg>
