<svg width="35" height="34" viewBox="0 0 35 34" fill="none" xmlns="http://www.w3.org/2000/svg">
<path fill-rule="evenodd" clip-rule="evenodd" d="M17.5002 2.8335C9.67591 2.8335 3.3335 9.17591 3.3335 17.0002C3.3335 19.6777 4.07725 22.1852 5.37066 24.3215L4.107 28.6168C4.03444 28.8634 4.02967 29.1251 4.09318 29.3742C4.15668 29.6233 4.28613 29.8506 4.46791 30.0324C4.64968 30.2142 4.87707 30.3436 5.12617 30.4072C5.37527 30.4707 5.63688 30.4659 5.8835 30.3933L10.1788 29.1297C12.387 30.4655 14.9193 31.1701 17.5002 31.1668C25.3244 31.1668 31.6668 24.8244 31.6668 17.0002C31.6668 9.17591 25.3244 2.8335 17.5002 2.8335ZM14.2957 20.2061C17.1616 23.0706 19.8972 23.4488 20.8633 23.4842C22.3324 23.5381 23.7632 22.4161 24.32 21.1142C24.3897 20.9521 24.4149 20.7743 24.393 20.5993C24.3711 20.4242 24.3028 20.2582 24.1953 20.1182C23.419 19.1266 22.3692 18.414 21.3436 17.7057C21.1295 17.5572 20.8663 17.4976 20.6092 17.5394C20.3521 17.5811 20.1212 17.721 19.9652 17.9295L19.1152 19.2257C19.0702 19.2952 19.0006 19.3449 18.9204 19.3649C18.8402 19.3849 18.7553 19.3736 18.6831 19.3334C18.1065 19.0033 17.2664 18.4423 16.6629 17.8388C16.0594 17.2353 15.5324 16.4335 15.2363 15.8937C15.2005 15.825 15.1904 15.7457 15.2078 15.6701C15.2252 15.5946 15.269 15.5277 15.3312 15.4815L16.6402 14.5097C16.8276 14.3476 16.9485 14.1221 16.9799 13.8763C17.0113 13.6306 16.9509 13.3819 16.8102 13.178C16.1756 12.2487 15.4361 11.0672 14.3637 10.2837C14.225 10.1841 14.0629 10.122 13.8931 10.1033C13.7234 10.0847 13.5517 10.1103 13.3947 10.1775C12.0913 10.7357 10.9637 12.1665 11.0175 13.6384C11.0529 14.6046 11.4312 17.3402 14.2957 20.2061Z" fill="#322222"/>
</svg>
